<?xml version="1.0" encoding="UTF-8"?>
<!DOCTYPE svg PUBLIC "-//W3C//DTD SVG 1.1//EN" "http://www.w3.org/Graphics/SVG/1.1/DTD/svg11.dtd">
<!-- Creator: CorelDRAW 2021 (64-Bit) -->
<svg xmlns="http://www.w3.org/2000/svg" xml:space="preserve" width="215.9mm" height="279.4mm" version="1.1" style="shape-rendering:geometricPrecision; text-rendering:geometricPrecision; image-rendering:optimizeQuality; fill-rule:evenodd; clip-rule:evenodd"
viewBox="0 0 21590 27940"
 xmlns:xlink="http://www.w3.org/1999/xlink"
 xmlns:xodm="http://www.corel.com/coreldraw/odm/2003">
 <defs>
  <style type="text/css">
   <![CDATA[
    .fil5 {fill:#058139}
    .fil23 {fill:#147948}
    .fil1 {fill:#19AB7D}
    .fil20 {fill:#1B31AC}
    .fil6 {fill:#1C33B7}
    .fil9 {fill:#1C99CE}
    .fil18 {fill:#2496CA}
    .fil0 {fill:#61B5DD}
    .fil8 {fill:#6328A6}
    .fil19 {fill:#642AA4}
    .fil2 {fill:#B54DC2}
    .fil21 {fill:#C43509}
    .fil3 {fill:#C92336}
    .fil22 {fill:#C93815}
    .fil7 {fill:#CA350A}
    .fil4 {fill:#DC6D01}
    .fil12 {fill:#E8E8E8}
    .fil17 {fill:#E9F9F8}
    .fil14 {fill:#ECFEFE}
    .fil10 {fill:#EEEEEE}
    .fil16 {fill:#F4FEFE}
    .fil13 {fill:#FAF6EB}
    .fil11 {fill:#FAFAFA}
    .fil15 {fill:#FDF4FD}
   ]]>
  </style>
 </defs>
 <g id="Capa_x0020_1">
  <metadata id="CorelCorpID_0Corel-Layer"/>
  <g id="_2440502177248">
   <path class="fil0" d="M3907.79 12970.16c29.78,-87.35 76.77,-106.39 140.45,-160.94 106.42,-91.18 89.9,-93.13 257.48,-82.59 11.22,173.57 15.61,351.43 20.93,525.77 15.17,498.01 61.91,402.58 -117.19,425.52 -54.12,-94.85 -45.08,-589.35 -51.57,-739.42 -164.36,43.69 -110.89,157.42 -250.1,31.66zm-42.5 2837.71l48.61 -102.88c260.17,-38.14 466.32,-156.22 748.84,-233.79l1854.74 -681.62c80.87,-30.37 90.66,-25.49 189.06,-54.88 95.94,-28.65 92.57,-37.73 213.32,-74.61l2637.25 -935.75c133.99,-48.97 251.89,-153.16 424.03,-48.8 -36.41,-133.48 -97.43,-279.19 -111.47,-456.88 -14.9,-188.82 36.91,-380.17 21.68,-561.41 -157.67,-83.86 -1270.84,-378.4 -1552.93,-465.97l-3104.07 -917.3c-199.4,-61.66 -1452.54,-378.42 -1525.48,-482.09 -259.69,563.04 -353.6,1845.08 -339.72,2567.06 9.62,500.64 80.3,843.08 151.34,1287.63 36.14,226.17 86.28,393.78 141.34,601.11l203.46 560.18z"/>
   <path class="fil1" d="M16945.23 17379.88l87.75 88.83c109.35,85.42 234.05,119.17 250.88,201.76 13.32,65.39 4.84,33.51 -13.54,70.98 -109.64,33.88 -282.3,-130.02 -443.25,-244.5 -108.32,-77.04 -72.18,-31.12 -124.48,-117.07 62.56,-118.42 326.39,-240.41 429.54,-304.17 179.6,-111.02 323.14,-280.51 533.45,-197.89 -36.87,86.26 -5.06,38.15 -66.35,96.6 -59.15,56.4 -501.84,275.45 -654,405.46zm-4693.81 -3080.57c212.46,128.42 2118.75,2692.91 2506.89,3187.34l1229.93 1592.85c73.83,96.48 208.81,247.9 250.4,333.51 296.47,-282.92 466.25,-356.94 901.01,-815.59 257.42,-271.57 529.57,-575.56 779.4,-948.95 691.86,-1034.01 706.24,-1208.76 1131.35,-2357.24 -201.55,11.93 -4182.02,-1186.79 -4700.2,-1350.49 -290.12,-91.66 -1377.93,-350.72 -1535.46,-477.94 -183.06,428.17 -238.07,548.17 -563.32,836.51z"/>
   <path class="fil2" d="M17265.17 8768.43c-177.85,126.55 -525.97,310.17 -600.69,-73.88 -35.58,-182.87 51.24,-281.01 154.07,-363.83 264.35,-212.88 278.48,-82.21 307.32,-52.51 -47.07,109.16 13.82,28.81 -113.99,102.13 -66.3,38.04 -264.54,108.87 -176.77,289.28 117.58,241.68 334.72,-56.53 462.41,-87.96 101.86,65.85 239.59,298.85 276.45,402.11l-403.58 263.06c-3.53,-8.51 -17,-2.83 -24.58,-6.65 -78.71,-88.71 97.49,-165.14 240.31,-277.67 -33.54,-59.96 -87.06,-140.43 -120.95,-194.08zm-5046.08 3063.45c103.78,111.71 207.1,185.9 316.85,324.9 135.32,171.39 144.34,241.03 243.22,421.08 986.61,-377.6 2018.99,-723.48 3040.19,-1088.08 410.84,-146.68 2860.93,-1072.17 3098.7,-1067.99l-554.23 -1201.42c-205.95,-403.11 -463.17,-746.36 -698.96,-1061.41 -124.35,-166.15 -269.91,-352.8 -400.66,-481.2 -90.05,-88.42 -120.94,-133.74 -203.03,-222.96 -80.85,-87.88 -151.54,-131.61 -240.96,-216.21 -158.94,-150.38 -310.49,-293.63 -468.07,-414.27l-526.65 -395.28c-12.09,235.74 -105.76,234.82 -200.09,385.25l-1600.35 2355.81c-509.05,730.4 -1378.72,1956.68 -1805.96,2661.78z"/>
   <path class="fil3" d="M5599.31 8620.6c-190.7,-72.08 -90.49,49.63 -164.92,-95.44 41.01,-35.88 -92.92,-77.6 141.49,-69.77 130.35,4.35 263.68,146.85 329.55,193.97 52.8,509.06 -298.44,411.59 -580.23,501.48 -98.35,31.37 -64.67,27.18 -87.84,44.6 84.73,62.8 141.62,96.36 208.12,142.9 176.25,123.36 110.36,256.54 -85.03,123.92 -102.45,-69.53 -369.45,-213.81 -398.66,-325.88 201.13,-211.83 748.98,-47.95 785.56,-399.56 -52.66,-90.37 -18.76,-67.36 -148.04,-116.22zm-1890.44 2171.29c72.94,103.67 1326.08,420.43 1525.48,482.09l3104.07 917.3c282.09,87.57 1395.26,382.11 1552.93,465.97 91.77,-93.49 142.23,-271.26 216.79,-386.25 102.35,-157.82 154.57,-215.1 277.12,-331.94 34.66,-47.34 26.56,-22.33 33.85,-97.97l-1971.61 -2544.87c-48.29,-57.05 -91.89,-87.94 -134.33,-143.78l-480.07 -653.38c-280.16,-310.8 -73.44,-76.5 -243.38,-320.7l-377.95 -467.34c-88.67,-114.29 -627.07,-884.75 -737.14,-851.08l6.41 -98.6c-172.62,66.71 -333.24,265.08 -477.81,382.28 -899.73,729.33 -2066.18,2497.8 -2294.36,3648.27z"/>
   <path class="fil4" d="M8974.03 6374.71c10.3,-225.95 -123.98,-114.6 6.22,-270.34 162.96,37.93 150.9,341.27 349.14,206.85 170.74,-115.77 -86.83,-211.93 -74.43,-435.99 343.78,9.88 448.79,791.57 -144.19,569.27 -69.54,308.15 -458.67,409.89 -604.39,-102.62 -52.55,-184.84 -48.31,-185.19 77.53,-243.2 28.47,36.44 10.62,-0.68 34.27,70.82 41.68,126.04 1.01,187.06 138.82,337.81 144.78,1.88 210.58,8.91 217.03,-132.6zm-2492.99 386.63l-6.41 98.6c110.07,-33.67 648.47,736.79 737.14,851.08l377.95 467.34c169.94,244.2 -36.78,9.9 243.38,320.7l480.07 653.38c42.44,55.84 86.04,86.73 134.33,143.78l1971.61 2544.87c-7.29,75.64 0.81,50.63 -33.85,97.97 140.82,-74.3 203.01,-151.88 390.58,-231.12 167.42,-70.72 331.13,-98.53 535.08,-122.06l-177.27 -6502.49c-959.14,-6.17 -1850.74,253.79 -2639.58,532.32 -517.63,182.76 -1775.13,834.24 -2013.03,1145.63z"/>
   <path class="fil5" d="M13171.21 6196.57c24.96,-133.49 65.51,-315.72 139.92,-409.8 143.43,48.55 248.53,204.04 336.62,320.13 260.73,343.58 259.8,195.13 225.94,458.45 -158.39,-17.04 -260.96,-57.19 -406.41,-102.51 -386.54,-120.45 -92.33,14.18 -332.54,43.93 -85.06,-120.32 31.82,-18.71 -89.1,-150.03 -94.17,-102.27 -99.35,77.13 -81.51,-159.91 91.15,-48.17 86.15,-16.31 207.08,-0.26zm-1860.29 5389.31c181.4,8.37 320.98,16.49 495.24,66.16 169.23,48.24 279.56,144.19 412.93,179.84 427.24,-705.1 1296.91,-1931.38 1805.96,-2661.78l1600.35 -2355.81c94.33,-150.43 188,-149.51 200.09,-385.25 -666.1,-365.92 -1219.34,-740.67 -2050.74,-977.65 -854.28,-243.5 -1634.76,-406.61 -2641.1,-368l177.27 6502.49z"/>
   <path class="fil6" d="M18707.46 12993.37c-752.09,439.61 -593.41,-876.97 -16.55,-499.96 300.59,196.47 228.41,995.94 -266.9,973.66 -216.93,-9.75 -105.96,8.95 -147.14,-73.58 85.5,-163.35 140.47,5.14 311.41,-120.75 76.19,-56.12 102.31,-157.49 119.18,-279.37zm-5928.3 -415.51c52.46,388.31 94.04,446.65 35.58,884.94 157.53,127.22 1245.34,386.28 1535.46,477.94 518.18,163.7 4498.65,1362.42 4700.2,1350.49 209.19,-855.92 341.4,-1538.42 299.28,-2497.47 -18.86,-429.44 -53.61,-834.13 -136.43,-1248.58 -77.15,-386.06 -237.26,-795.56 -295.2,-1123.39 -237.77,-4.18 -2687.86,921.31 -3098.7,1067.99 -1021.2,364.6 -2053.58,710.48 -3040.19,1088.08z"/>
   <path class="fil7" d="M13637.98 19716.73c35.06,-143.82 62.81,-253.19 237.99,-264.59 374.93,-24.4 590.91,840.8 -141.51,582.76 -77.39,126.7 -170.23,306.86 -394.29,177.57 -152.02,-87.72 -337.61,-744.17 297.81,-495.74zm-2195.02 -5143.22c-71.49,121.73 38.4,2880.17 63.83,3232.93 39.25,544.5 -16.28,1152.82 34.92,1662.92 50.41,502.15 -14.12,1127.47 51.28,1601.62 1418.35,4.1 3011.58,-555.24 4167.77,-1313.38 176.16,-115.51 319.53,-240.92 477.88,-344.59 -41.59,-85.61 -176.57,-237.03 -250.4,-333.51l-1229.93 -1592.85c-388.14,-494.43 -2294.43,-3058.92 -2506.89,-3187.34 -328.76,118.77 -332,216.91 -808.46,274.2z"/>
   <path class="fil8" d="M9550.69 20290.7c45.25,-286.71 110.4,-392.86 -181.21,-496.8 44.76,277.3 -48.27,509.23 -365.96,412.91 -580.59,-176.02 -95.37,-1008.32 578.22,-473.46 175.57,139.41 188.87,377.93 124.44,499.35 -61.69,116.23 5.49,90.9 -155.49,58zm-2679.88 -577.48l980.48 550.86c1166.45,560.7 2385.14,828.55 3741.7,806.9 -65.4,-474.15 -0.87,-1099.47 -51.28,-1601.62 -51.2,-510.1 4.33,-1118.42 -34.92,-1662.92 -25.43,-352.76 -135.32,-3111.2 -63.83,-3232.93 -462.73,4.76 -567.33,-89.39 -901.32,-230.92 -96.23,35.04 -341.49,460.94 -474.94,641.45 -155.67,210.59 -287.88,431.62 -458.33,669.99 -279.31,390.62 -2695.89,3897.25 -2737.56,4059.19z"/>
   <path class="fil9" d="M5387.19 16960.71c349.86,-192.73 975.42,649.96 502.5,868.27 -278.85,128.72 -453.6,-143.56 -550.03,-275.83 -186.03,-255.15 -238.44,-434.9 47.53,-592.44zm-1521.9 -1152.84c23.38,476.49 915.75,1824.04 1215.07,2217.62 348.37,458.06 832.75,941.85 1303.34,1308.04 96.21,74.87 417.16,295.86 487.11,379.69 41.67,-161.94 2458.25,-3668.57 2737.56,-4059.19 170.45,-238.37 302.66,-459.4 458.33,-669.99 133.45,-180.51 378.71,-606.41 474.94,-641.45 -329.62,-291.22 -317.45,-280.16 -560.5,-667.05 -172.14,-104.36 -290.04,-0.17 -424.03,48.8l-2637.25 935.75c-120.75,36.88 -117.38,45.96 -213.32,74.61 -98.4,29.39 -108.19,24.51 -189.06,54.88l-1854.74 681.62c-282.52,77.57 -488.67,195.65 -748.84,233.79l-48.61 102.88z"/>
   <path class="fil10" d="M3708.87 10791.89c228.18,-1150.47 1394.63,-2918.94 2294.36,-3648.27 144.57,-117.2 305.19,-315.57 477.81,-382.28 237.9,-311.39 1495.4,-962.87 2013.03,-1145.63 788.84,-278.53 1680.44,-538.49 2639.58,-532.32 1006.34,-38.61 1786.82,124.5 2641.1,368 831.4,236.98 1384.64,611.73 2050.74,977.65l526.65 395.28c157.58,120.64 309.13,263.89 468.07,414.27 89.42,84.6 160.11,128.33 240.96,216.21 82.09,89.22 112.98,134.54 203.03,222.96 130.75,128.4 276.31,315.05 400.66,481.2 235.79,315.05 493.01,658.3 698.96,1061.41l554.23 1201.42c57.94,327.83 218.05,737.33 295.2,1123.39 82.82,414.45 117.57,819.14 136.43,1248.58 42.12,959.05 -90.09,1641.55 -299.28,2497.47 -425.11,1148.48 -439.49,1323.23 -1131.35,2357.24 -249.83,373.39 -521.98,677.38 -779.4,948.95 -434.76,458.65 -604.54,532.67 -901.01,815.59 -158.35,103.67 -301.72,229.08 -477.88,344.59 -1156.19,758.14 -2749.42,1317.48 -4167.77,1313.38 -1356.56,21.65 -2575.25,-246.2 -3741.7,-806.9l-980.48 -550.86c-69.95,-83.83 -390.9,-304.82 -487.11,-379.69 -470.59,-366.19 -954.97,-849.98 -1303.34,-1308.04 -299.32,-393.58 -1191.69,-1741.13 -1215.07,-2217.62l-203.46 -560.18c-55.06,-207.33 -105.2,-374.94 -141.34,-601.11 -71.04,-444.55 -141.72,-786.99 -151.34,-1287.63 -13.88,-721.98 80.03,-2004.02 339.72,-2567.06zm9476.48 -5798.02c-68.21,-13.93 -118.9,-21.41 -206.29,-40.13 -527.4,-112.96 -443.34,-68.64 -901.41,-126.01 -814.96,-102.06 -877.46,-6.56 -1482.73,-6.56 84.53,105.01 106.36,105.48 246.94,105.48 -83.55,-104.72 -723.42,-46.35 -920.26,-33.77 -155.94,9.96 -279.75,75.58 -428.4,108.98 -574.78,129.14 -388.83,116.57 -789.76,235.98 -254.55,75.81 -557.86,161.46 -788.36,280.23 -70.2,36.17 -1.26,3.3 -89.78,50l-1680.22 1043.34c-47.16,40.01 -13.31,15.24 -74.05,68.3 -5.48,4.79 -13.18,11.69 -18.75,16.38l-174.43 143.33c-5.24,4.98 -12.42,12.66 -17.66,17.62l-94.73 81.06c-5.95,4.65 -14.63,10.3 -20.59,15.02l-391.51 391.62c-46.31,58.96 -8.62,19.73 -59.97,78.57 -469.66,538.11 -717.89,799.42 -1059.55,1417.51 -9.22,16.68 -35.49,59.12 -52.51,86.68 -4.18,6.77 -9.9,15.27 -14.09,22.15l-608.44 1303.27c-127.21,333.63 -443.97,1583.46 -444.18,1905.56 -0.14,218.25 -24.96,279.27 -34.04,455.74 -14.93,290.04 -14.92,739.33 0,1029.38 5.67,110.32 22.5,362.89 39.68,495.1 18.11,139.38 44.23,107.93 61.39,220.27 12.53,82.02 -0.52,147.85 14.68,235.86l96.72 428.38c29.23,206.69 117.56,405.44 179.89,605.85 16.4,52.73 44.86,138.62 61.92,186.47l514.03 1187.67c26.98,45.8 36.2,53.95 51.88,84.87l285.84 498.28c71.33,107.27 142.93,199.17 213.33,312.11l617.86 763.38c5,5.46 12.33,13.02 17.37,18.49 5.03,5.47 12.45,12.9 17.48,18.38 4.99,5.44 12.37,12.87 17.3,18.34 4.89,5.43 12.08,12.97 16.87,18.46l519.93 509.16c253.66,206.49 247.37,262.07 587.88,474.4l1261.11 784.98c368.44,199.43 736.78,294.52 1120.17,438.71 303.52,114.15 769.29,173.41 1009.94,290.34 302.31,146.89 822.54,78.43 1161.62,123.35 317.04,42 690.87,-18.96 987.78,-26.33 352.49,-8.74 645.84,-36.38 957.81,-113.65l637.49 -139.87c52.87,-14.19 146.38,-44.18 190.67,-56.32 482.33,-132.14 995.83,-305.65 1448,-572.35l666.92 -393.96c611.02,-393.43 1206.49,-833.72 1681.42,-1397.73 161.04,-191.24 638.39,-775.45 738.77,-963.79l48.8 -86.81c144,-226.41 308.24,-442.85 371.46,-703.67 46.84,-193.27 426.07,-906.12 631.84,-1694.37l171.71 -848.88c302.48,-1082.04 -6.13,-3220.14 -401.68,-4144.18l-69.41 -173.86c-3.19,-8.7 -6.16,-18.28 -9.45,-26.95 -117.36,-310.03 -251.45,-527.81 -342.35,-853.1 -48.89,-174.93 -289.59,-502.95 -401.3,-669.71 -132.57,-197.9 -255.71,-427.82 -420.28,-608.65l-402.72 -441.43c-4.62,-5.53 -10.95,-13.88 -15.44,-19.53 -4.51,-5.68 -10.62,-14.17 -15.05,-19.95 -163.63,-213.18 -387.03,-372.23 -573.31,-559.9 -524.04,-527.93 -945.09,-646.89 -1376.55,-989.33 -137.07,-108.78 9.14,-17.43 -164.63,-94.34 -60.85,-26.92 -94.45,-45.27 -166.95,-78.07l-1935.67 -685.85z"/>
   <path class="fil11" d="M10135.95 13322.93c1.65,6.58 10,13.43 11.89,16.51l23.2 36.55c63.24,122.87 40.97,192.45 160.84,357.2l343.46 348.42c6.7,4.34 15.33,10.29 21.95,14.72l198.58 110.3c307.94,122.2 461.02,157.98 773.64,39.39 135.7,-51.48 171.52,-41.07 326.76,-130.62 87.94,-50.73 115.88,-68.01 178.9,-129.69l238.86 -279.57c305.61,-565.13 188.84,-1178.05 -331.57,-1583.69 -226.93,-176.88 -499.54,-289.57 -953.94,-246.14 -207.12,19.79 -378.93,161.27 -528.81,289.81l-63.25 48.3c-80.2,60.92 -99.13,83.05 -147.02,154.53 -115.05,171.69 -146.01,196.09 -215.47,410.12 -30.6,94.3 -72.77,405.35 -38.02,543.86z"/>
   <path class="fil12" d="M1352.14 14134.15c177.64,-46.75 112.34,-6.57 240,-113.36 59.34,-49.63 96.36,-76.63 153.78,-125.69 105.12,-89.8 200.9,-175.17 306.09,-256.76 213.05,-165.24 385.74,-345.11 605.05,-491.97 -24.31,-172.8 -9.26,-160.86 -139.32,-255.55l-771.12 -633.9c-254.93,-229.58 -205.94,-212.56 -394.48,-239.09l8.64 493.89 -820.03 0 4.23 1128.54 807.16 0 0 493.89z"/>
   <path class="fil12" d="M10135.95 13322.93c-34.75,-138.51 7.42,-449.56 38.02,-543.86 69.46,-214.03 100.42,-238.43 215.47,-410.12 47.89,-71.48 66.82,-93.61 147.02,-154.53l63.25 -48.3c149.88,-128.54 321.69,-270.02 528.81,-289.81 454.4,-43.43 727.01,69.26 953.94,246.14 520.41,405.64 637.18,1018.56 331.57,1583.69l-238.86 279.57c-63.02,61.68 -90.96,78.96 -178.9,129.69 -155.24,89.55 -191.06,79.14 -326.76,130.62 -312.62,118.59 -465.7,82.81 -773.64,-39.39l-198.58 -110.3c-6.62,-4.43 -15.25,-10.38 -21.95,-14.72l-343.46 -348.42c-119.87,-164.75 -97.6,-234.33 -160.84,-357.2l-23.2 -36.55c-1.89,-3.08 -10.24,-9.93 -11.89,-16.51zm249.31 -1383.87c-122.55,116.84 -174.77,174.12 -277.12,331.94 -74.56,114.99 -125.02,292.76 -216.79,386.25 15.23,181.24 -36.58,372.59 -21.68,561.41 14.04,177.69 75.06,323.4 111.47,456.88 243.05,386.89 230.88,375.83 560.5,667.05 333.99,141.53 438.59,235.68 901.32,230.92 476.46,-57.29 479.7,-155.43 808.46,-274.2 325.25,-288.34 380.26,-408.34 563.32,-836.51 58.46,-438.29 16.88,-496.63 -35.58,-884.94 -98.88,-180.05 -107.9,-249.69 -243.22,-421.08 -109.75,-139 -213.07,-213.19 -316.85,-324.9 -133.37,-35.65 -243.7,-131.6 -412.93,-179.84 -174.26,-49.67 -313.84,-57.79 -495.24,-66.16 -203.95,23.53 -367.66,51.34 -535.08,122.06 -187.57,79.24 -249.76,156.82 -390.58,231.12z"/>
   <path class="fil13" d="M13369.94 19839.7c124.34,-57.53 99.68,-37.02 219.17,14.95 15.4,162.09 -1.94,162.95 -107.15,243.53 -140.25,-84.42 -188.9,-109.94 -112.02,-258.48zm397.18 9.62c5.37,-182.9 10.05,-216.29 179.01,-242.23 113.78,83.98 135.53,119.78 95.17,304.81 -141.62,52.21 -181.21,23.43 -274.18,-62.58zm-129.14 -132.59c-635.42,-248.43 -449.83,408.02 -297.81,495.74 224.06,129.29 316.9,-50.87 394.29,-177.57 732.42,258.04 516.44,-607.16 141.51,-582.76 -175.18,11.4 -202.93,120.77 -237.99,264.59z"/>
   <path class="fil14" d="M5439.09 17090.6c131.51,-64.34 261.1,117.94 332.37,209.02 68.93,88.1 239.72,321.74 49.3,394.55 -181.42,69.37 -633.11,-480.57 -381.67,-603.57zm-51.9 -129.89c-285.97,157.54 -233.56,337.29 -47.53,592.44 96.43,132.27 271.18,404.55 550.03,275.83 472.92,-218.31 -152.64,-1061 -502.5,-868.27z"/>
   <path class="fil15" d="M9226.76 20034.22c-512.12,165.69 -371.04,-536.39 30.06,-243.94l-30.06 243.94zm323.93 256.48c160.98,32.9 93.8,58.23 155.49,-58 64.43,-121.42 51.13,-359.94 -124.44,-499.35 -673.59,-534.86 -1158.81,297.44 -578.22,473.46 317.69,96.32 410.72,-135.61 365.96,-412.91 291.61,103.94 226.46,210.09 181.21,496.8z"/>
   <path class="fil16" d="M18398.43 12927.81c-77.29,-189.45 -65.71,-270.81 98.53,-346.7 278.69,64.14 281.67,425.45 -98.53,346.7zm309.03 65.56c-16.87,121.88 -42.99,223.25 -119.18,279.37 -170.94,125.89 -225.91,-42.6 -311.41,120.75 41.18,82.53 -69.79,63.83 147.14,73.58 495.31,22.28 567.49,-777.19 266.9,-973.66 -576.86,-377.01 -735.54,939.57 16.55,499.96z"/>
   <path class="fil17" d="M13386.98 5997.6c102.3,86.51 199.98,237.32 268.05,347.59l-355.13 -118.32 87.08 -229.27zm-215.77 198.97c-120.93,-16.05 -115.93,-47.91 -207.08,0.26 -17.84,237.04 -12.66,57.64 81.51,159.91 120.92,131.32 4.04,29.71 89.1,150.03 240.21,-29.75 -54,-164.38 332.54,-43.93 145.45,45.32 248.02,85.47 406.41,102.51 33.86,-263.32 34.79,-114.87 -225.94,-458.45 -88.09,-116.09 -193.19,-271.58 -336.62,-320.13 -74.41,94.08 -114.96,276.31 -139.92,409.8z"/>
   <path class="fil13" d="M8980.25 6104.37c-130.2,155.74 4.08,44.39 -6.22,270.34 -6.45,141.51 -72.25,134.48 -217.03,132.6 -137.81,-150.75 -97.14,-211.77 -138.82,-337.81 -23.65,-71.5 -5.8,-34.38 -34.27,-70.82 -125.84,58.01 -130.08,58.36 -77.53,243.2 145.72,512.51 534.85,410.77 604.39,102.62 592.98,222.3 487.97,-559.39 144.19,-569.27 -12.4,224.06 245.17,320.22 74.43,435.99 -198.24,134.42 -186.18,-168.92 -349.14,-206.85z"/>
   <path class="fil13" d="M5434.39 8525.16c74.43,145.07 -25.78,23.36 164.92,95.44 129.28,48.86 95.38,25.85 148.04,116.22 -36.58,351.61 -584.43,187.73 -785.56,399.56 29.21,112.07 296.21,256.35 398.66,325.88 195.39,132.62 261.28,-0.56 85.03,-123.92 -66.5,-46.54 -123.39,-80.1 -208.12,-142.9 23.17,-17.42 -10.51,-13.23 87.84,-44.6 281.79,-89.89 633.03,7.58 580.23,-501.48 -65.87,-47.12 -199.2,-189.62 -329.55,-193.97 -234.41,-7.83 -100.48,33.89 -141.49,69.77z"/>
   <path class="fil15" d="M17265.17 8768.43c33.89,53.65 87.41,134.12 120.95,194.08 -142.82,112.53 -319.02,188.96 -240.31,277.67 7.58,3.82 21.05,-1.86 24.58,6.65l403.58 -263.06c-36.86,-103.26 -174.59,-336.26 -276.45,-402.11 -127.69,31.43 -344.83,329.64 -462.41,87.96 -87.77,-180.41 110.47,-251.24 176.77,-289.28 127.81,-73.32 66.92,7.03 113.99,-102.13 -28.84,-29.7 -42.97,-160.37 -307.32,52.51 -102.83,82.82 -189.65,180.96 -154.07,363.83 74.72,384.05 422.84,200.43 600.69,73.88z"/>
   <path class="fil14" d="M16945.23 17379.88c152.16,-130.01 594.85,-349.06 654,-405.46 61.29,-58.45 29.48,-10.34 66.35,-96.6 -210.31,-82.62 -353.85,86.87 -533.45,197.89 -103.15,63.76 -366.98,185.75 -429.54,304.17 52.3,85.95 16.16,40.03 124.48,117.07 160.95,114.48 333.61,278.38 443.25,244.5 18.38,-37.47 26.86,-5.59 13.54,-70.98 -16.83,-82.59 -141.53,-116.34 -250.88,-201.76l-87.75 -88.83z"/>
   <path class="fil18" d="M5439.09 17090.6c-251.44,123 200.25,672.94 381.67,603.57 190.42,-72.81 19.63,-306.45 -49.3,-394.55 -71.27,-91.08 -200.86,-273.36 -332.37,-209.02z"/>
   <path class="fil14" d="M3907.79 12970.16c139.21,125.76 85.74,12.03 250.1,-31.66 6.49,150.07 -2.55,644.57 51.57,739.42 179.1,-22.94 132.36,72.49 117.19,-425.52 -5.32,-174.34 -9.71,-352.2 -20.93,-525.77 -167.58,-10.54 -151.06,-8.59 -257.48,82.59 -63.68,54.55 -110.67,73.59 -140.45,160.94z"/>
   <path class="fil19" d="M9226.76 20034.22l30.06 -243.94c-401.1,-292.45 -542.18,409.63 -30.06,243.94z"/>
   <path class="fil20" d="M18398.43 12927.81c380.2,78.75 377.22,-282.56 98.53,-346.7 -164.24,75.89 -175.82,157.25 -98.53,346.7z"/>
   <path class="fil21" d="M13767.12 19849.32c92.97,86.01 132.56,114.79 274.18,62.58 40.36,-185.03 18.61,-220.83 -95.17,-304.81 -168.96,25.94 -173.64,59.33 -179.01,242.23z"/>
   <path class="fil22" d="M13369.94 19839.7c-76.88,148.54 -28.23,174.06 112.02,258.48 105.21,-80.58 122.55,-81.44 107.15,-243.53 -119.49,-51.97 -94.83,-72.48 -219.17,-14.95z"/>
   <path class="fil23" d="M13299.9 6226.87l355.13 118.32c-68.07,-110.27 -165.75,-261.08 -268.05,-347.59l-87.08 229.27z"/>
  </g>
 </g>
</svg>
